PathFileType	3	(X/Y/Z)	D:\VICON_DB\Goncalves\Pilot01\09-03-2026\static_01.trc
DataRate	CameraRate	NumFrames	NumMarkers	Units	OrigDataRate	OrigDataStartFrame	OrigNumFrames
200.0	200.0	4	40	mm	200.0	201	321
Frame#	Time	LASI			RASI			LPSI			RPSI			LTHI			LTHAP			LTHAD			LKNE			LKNM			LTIB			LTIAP			LTIAD			LANK			LMED			LHEE			LTOE			LFMH			LSMH			LVMH			RTHI			RTHAP			RTHAD			RKNE			RKNM			RTIB			RTIAP			RTIAD			RANK			RMED			RHEE			RTOE			RFMH			RSMH			RVMH			RHJC			LHJC			RKJC			LKJC			RAJC			LAJC
		X1	Y1	Z1	X2	Y2	Z2	X3	Y3	Z3	X4	Y4	Z4	X5	Y5	Z5	X6	Y6	Z6	X7	Y7	Z7	X8	Y8	Z8	X9	Y9	Z9	X10	Y10	Z10	X11	Y11	Z11	X12	Y12	Z12	X13	Y13	Z13	X14	Y14	Z14	X15	Y15	Z15	X16	Y16	Z16	X17	Y17	Z17	X18	Y18	Z18	X19	Y19	Z19	X20	Y20	Z20	X21	Y21	Z21	X22	Y22	Z22	X23	Y23	Z23	X24	Y24	Z24	X25	Y25	Z25	X26	Y26	Z26	X27	Y27	Z27	X28	Y28	Z28	X29	Y29	Z29	X30	Y30	Z30	X31	Y31	Z31	X32	Y32	Z32	X33	Y33	Z33	X34	Y34	Z34	X35	Y35	Z35	X36	Y36	Z36	X37	Y37	Z37	X38	Y38	Z38	X39	Y39	Z39	X40	Y40	Z40
201	1.000000	118.587510	903.922000	-1062.729000	113.849380	904.598080	-1327.551300	297.302000	956.370060	-1183.620100	308.880400	954.346860	-1228.776600	125.383630	694.070370	-1030.760300	142.900450	767.892270	-1017.072300	169.566180	629.925900	-1006.995200	222.171170	474.767850	-1023.723400	198.706650	464.919530	-1151.873800	259.202420	281.537110	-1004.170800	201.898380	357.177980	-1059.439600	217.182830	254.871720	-1032.039100	272.949130	70.145821	-1027.374600	239.367780	81.120338	-1107.925400	315.038480	61.710457	-1080.505000	191.305050	71.860199	-1047.298200	134.130340	44.933964	-1072.904200	133.785220	39.283588	-1032.724700	149.222340	25.516850	-992.890010	157.993330	626.403560	-1380.041500	121.604660	752.280760	-1356.105300	105.354550	660.535640	-1334.173100	206.495040	490.666440	-1363.680100	204.661870	433.907710	-1243.631200	226.526230	296.362550	-1382.794300	187.176540	346.229610	-1327.637600	192.838550	264.930540	-1330.600500	269.102910	62.149185	-1355.893800	232.955980	90.709816	-1275.213000	305.093870	57.932480	-1314.011100	176.685200	69.079277	-1340.294100	126.243870	49.283127	-1315.156200	123.945700	40.532326	-1351.267700	139.859660	20.635303	-1388.881200	192.789680	832.211220	-1291.415176	196.178022	831.727740	-1102.034841	205.578455	462.287075	-1303.655650	210.438910	469.843690	-1087.798600	251.029445	76.429501	-1315.553400	256.158455	75.633080	-1067.650000
202	1.005000	118.507350	903.935850	-1062.724900	113.698690	904.570860	-1327.584800	297.476010	956.386050	-1183.240100	308.780670	954.341310	-1228.818200	125.316920	694.059810	-1030.742400	142.840680	767.880860	-1017.055300	169.503170	629.914670	-1006.981100	222.125520	474.762270	-1023.719200	198.630540	464.916960	-1151.848500	259.185760	281.548130	-1004.166400	201.834550	357.162350	-1059.435400	217.141080	254.866810	-1032.053300	272.911710	70.133736	-1027.408800	239.338230	81.146980	-1107.936500	315.029020	61.723331	-1080.515600	191.175930	71.863876	-1047.350000	134.125290	44.947990	-1072.893900	133.780620	39.286491	-1032.712400	149.223450	25.518787	-992.880980	157.879260	626.359740	-1380.032800	121.511720	752.216920	-1356.078700	105.251370	660.533630	-1334.147800	206.391050	490.659450	-1363.666600	204.565080	433.933900	-1243.597300	226.457500	296.351320	-1382.752900	187.093340	346.220460	-1327.624000	192.783140	264.896390	-1330.559900	269.100220	62.150696	-1355.868000	232.947190	90.645744	-1275.224500	305.104920	57.933842	-1313.992800	176.674320	69.087753	-1340.267000	126.229910	49.277195	-1315.156600	123.920630	40.550049	-1351.279500	139.812180	20.670027	-1388.930400	192.674312	832.176683	-1291.452149	196.113053	831.722578	-1102.047062	205.478065	462.296675	-1303.631950	210.378030	469.839615	-1087.783850	251.023705	76.398220	-1315.546250	256.124970	75.640358	-1067.672650
203	1.010000	118.453510	903.939030	-1062.693200	113.645250	904.571590	-1327.486200	297.604030	956.448000	-1183.140000	308.688780	954.352660	-1228.836800	125.254660	694.059940	-1030.724700	142.769230	767.884770	-1017.059100	169.423980	629.911070	-1006.977500	222.074100	474.761930	-1023.723500	198.559570	464.909030	-1151.824600	259.135620	281.543060	-1004.176600	201.852230	357.306400	-1059.451500	217.118070	254.863050	-1032.037100	272.863100	70.154915	-1027.342700	239.349610	81.144913	-1107.925500	315.023650	61.710392	-1080.507700	191.156460	71.866875	-1047.304000	134.106800	44.940475	-1072.892800	133.782170	39.289204	-1032.707600	149.210300	25.538847	-992.866640	157.776250	626.364380	-1379.984100	121.385880	752.236760	-1356.074300	105.157040	660.527770	-1334.110600	206.261840	490.659210	-1363.682400	204.444370	433.953430	-1243.599900	226.362750	296.306180	-1382.709600	187.007100	346.220550	-1327.591200	192.679750	264.892240	-1330.562500	269.091550	62.161316	-1355.859700	233.058650	90.423401	-1275.332300	305.097990	57.930061	-1313.984600	176.662750	69.067467	-1340.241100	126.226250	49.257404	-1315.145300	123.902930	40.548244	-1351.288500	139.803680	20.679117	-1388.921400	192.639314	832.207998	-1291.364801	196.077836	831.755637	-1102.003869	205.353105	462.306320	-1303.641150	210.316835	469.835480	-1087.774050	251.075100	76.292359	-1315.596000	256.106355	75.649914	-1067.634100
204	1.015000	118.401410	903.928590	-1062.668900	113.487040	904.525450	-1327.528400	297.832000	956.516050	-1182.630000	308.618410	954.361820	-1228.849600	125.191150	694.057800	-1030.720300	142.709590	767.877930	-1017.055800	169.366880	629.902950	-1006.967000	222.023940	474.763790	-1023.717300	198.500640	464.906460	-1151.803500	259.133820	281.551240	-1004.176000	201.745800	357.177370	-1059.421800	217.092390	254.857210	-1032.038000	272.931920	70.093628	-1027.420700	239.349300	81.137871	-1107.944300	315.011750	61.738029	-1080.513500	191.233150	71.820419	-1047.319500	134.104780	44.943890	-1072.886200	133.774640	39.296391	-1032.700600	149.219010	25.543581	-992.855100	157.763340	626.254330	-1379.975100	121.304500	752.225280	-1356.062600	105.046030	660.550290	-1334.103100	206.132520	490.628170	-1363.685300	204.391530	433.942230	-1243.570900	226.254320	296.311610	-1382.719600	186.936160	346.186800	-1327.582500	192.626170	264.872160	-1330.526400	269.087100	62.164516	-1355.847200	232.962230	90.703659	-1275.199500	305.063870	57.965580	-1314.030500	176.635360	69.035507	-1340.262000	126.155660	49.262863	-1315.217900	123.900520	40.536789	-1351.283300	139.784550	20.689465	-1388.922100	192.549787	832.165924	-1291.417872	196.064121	831.739101	-1102.013152	205.262025	462.285200	-1303.628100	210.262290	469.835125	-1087.760400	251.024665	76.434088	-1315.523350	256.140610	75.615749	-1067.682500
